<svg width="18" height="18" viewBox="0 0 18 18" fill="none" xmlns="http://www.w3.org/2000/svg">
<path d="M13.2598 3.0992V1.54629C13.2598 1.41169 13.1051 1.33736 13.0006 1.41973L3.94439 8.49317C3.86745 8.55301 3.80519 8.62963 3.76236 8.71719C3.71953 8.80475 3.69727 8.90094 3.69727 8.99841C3.69727 9.09589 3.71953 9.19208 3.76236 9.27964C3.80519 9.3672 3.86745 9.44382 3.94439 9.50366L13.0006 16.5771C13.1071 16.6595 13.2598 16.5851 13.2598 16.4505V14.8976C13.2598 14.7992 13.2136 14.7048 13.1373 14.6445L5.90511 8.99942L13.1373 3.35232C13.2136 3.29205 13.2598 3.19763 13.2598 3.0992Z" fill="#28454A"/>
</svg>
