<svg width="48" height="48" viewBox="0 0 48 48" fill="none" xmlns="http://www.w3.org/2000/svg">
<path d="M32.0357 23.1514H18.9755L26.7924 16.3657C26.9174 16.2563 26.8415 16.0532 26.6764 16.0532H24.7009C24.6139 16.0532 24.5313 16.0845 24.4665 16.1403L16.0313 23.4595C15.954 23.5264 15.8921 23.6092 15.8496 23.7022C15.8071 23.7952 15.7852 23.8963 15.7852 23.9985C15.7852 24.1008 15.8071 24.2018 15.8496 24.2948C15.8921 24.3878 15.954 24.4706 16.0313 24.5376L24.5157 31.9014C24.5491 31.9305 24.5893 31.9461 24.6317 31.9461H26.6741C26.8393 31.9461 26.9152 31.7407 26.7902 31.6336L18.9755 24.8479H32.0357C32.134 24.8479 32.2143 24.7675 32.2143 24.6693V23.33C32.2143 23.2318 32.134 23.1514 32.0357 23.1514Z" fill="#28454A"/>
</svg>
