<svg width="48" height="48" viewBox="0 0 48 48" fill="none" xmlns="http://www.w3.org/2000/svg">
<path d="M32.1429 30.8538H31.5V21.7467C31.5 17.9672 28.7063 14.844 25.0714 14.3243V13.2824C25.0714 12.6904 24.592 12.2109 24 12.2109C23.408 12.2109 22.9286 12.6904 22.9286 13.2824V14.3243C19.2938 14.844 16.5 17.9672 16.5 21.7467V30.8538H15.8571C15.383 30.8538 15 31.2368 15 31.7109V32.5681C15 32.6859 15.0964 32.7824 15.2143 32.7824H21C21 34.4377 22.3446 35.7824 24 35.7824C25.6554 35.7824 27 34.4377 27 32.7824H32.7857C32.9036 32.7824 33 32.6859 33 32.5681V31.7109C33 31.2368 32.617 30.8538 32.1429 30.8538ZM24 34.0681C23.2902 34.0681 22.7143 33.4922 22.7143 32.7824H25.2857C25.2857 33.4922 24.7098 34.0681 24 34.0681ZM18.4286 30.8538V21.7467C18.4286 20.2574 19.0071 18.8592 20.0598 17.8065C21.1125 16.7538 22.5107 16.1752 24 16.1752C25.4893 16.1752 26.8875 16.7538 27.9402 17.8065C28.9929 18.8592 29.5714 20.2574 29.5714 21.7467V30.8538H18.4286Z" fill="#28454A"/>
</svg>
