<svg width="48" height="48" viewBox="0 0 48 48" fill="none" xmlns="http://www.w3.org/2000/svg">
<path d="M24.0003 17.7188C28.1296 17.7188 31.4769 21.0661 31.4769 25.1953V30.6562C31.4769 30.8552 31.3979 31.0459 31.2572 31.1866C31.1166 31.3272 30.9258 31.4062 30.7269 31.4062H17.2738C17.0749 31.4062 16.8841 31.3272 16.7435 31.1866C16.6028 31.0459 16.5238 30.8552 16.5238 30.6562V25.1953C16.5238 21.0661 19.8711 17.7188 24.0003 17.7188ZM23.3441 13.5938H24.6566C24.7063 13.5938 24.754 13.6135 24.7892 13.6487C24.8243 13.6838 24.8441 13.7315 24.8441 13.7812V16.0312C24.8441 16.081 24.8243 16.1287 24.7892 16.1638C24.754 16.199 24.7063 16.2188 24.6566 16.2188H23.3441C23.2944 16.2188 23.2467 16.199 23.2115 16.1638C23.1763 16.1287 23.1566 16.081 23.1566 16.0312V13.7812C23.1566 13.7315 23.1763 13.6838 23.2115 13.6487C23.2467 13.6135 23.2944 13.5938 23.3441 13.5938ZM16.1546 16.492C16.1721 16.4746 16.1927 16.4608 16.2155 16.4513C16.2383 16.4419 16.2627 16.437 16.2873 16.437C16.3119 16.437 16.3363 16.4419 16.3591 16.4513C16.3819 16.4608 16.4025 16.4746 16.42 16.492L18.0109 18.083C18.046 18.1181 18.0658 18.1658 18.0658 18.2155C18.0658 18.2652 18.046 18.3129 18.0109 18.348L17.0828 19.2762C17.0476 19.3113 16.9999 19.331 16.9502 19.331C16.9005 19.331 16.8528 19.3113 16.8177 19.2762L15.2267 17.6852C15.1916 17.6501 15.1719 17.6024 15.1719 17.5527C15.1719 17.503 15.1916 17.4553 15.2267 17.4202L16.1549 16.492H16.1546ZM31.8484 16.492L32.7765 17.4202C32.8116 17.4553 32.8313 17.5029 32.8313 17.5526C32.8313 17.6022 32.8116 17.6498 32.7765 17.685L31.1856 19.2764C31.1682 19.2938 31.1475 19.3077 31.1247 19.3171C31.102 19.3265 31.0776 19.3314 31.0529 19.3314C31.0283 19.3314 31.0039 19.3265 30.9811 19.3171C30.9584 19.3077 30.9377 19.2938 30.9203 19.2764L29.9921 18.3483C29.9747 18.3309 29.9609 18.3102 29.9514 18.2874C29.942 18.2647 29.9371 18.2403 29.9371 18.2156C29.9371 18.191 29.942 18.1666 29.9514 18.1438C29.9609 18.1211 29.9747 18.1004 29.9921 18.083L31.5833 16.492C31.6185 16.4569 31.6661 16.4372 31.7159 16.4372C31.7656 16.4372 31.8132 16.4569 31.8484 16.492ZM16.5003 32.9062H31.5003C31.6993 32.9062 31.89 32.9853 32.0307 33.1259C32.1713 33.2666 32.2503 33.4573 32.2503 33.6562V34.2188C32.2503 34.2685 32.2306 34.3162 32.1954 34.3513C32.1603 34.3865 32.1126 34.4062 32.0628 34.4062H15.9378C15.8881 34.4062 15.8404 34.3865 15.8053 34.3513C15.7701 34.3162 15.7503 34.2685 15.7503 34.2188V33.6562C15.7503 33.4573 15.8294 33.2666 15.97 33.1259C16.1107 32.9853 16.3014 32.9062 16.5003 32.9062ZM19.9691 25.4766V31.4062H21.4691V25.4766H19.9691Z" fill="#28454A"/>
</svg>
